<?xml version="1.0" encoding="UTF-8" standalone="no"?>
<!-- Created with Inkscape (http://www.inkscape.org/) -->

<svg
   width="141.65256mm"
   height="141.92729mm"
   viewBox="0 0 141.65256 141.92729"
   version="1.1"
   id="svg1"
   xml:space="preserve"
   xmlns:inkscape="http://www.inkscape.org/namespaces/inkscape"
   xmlns:sodipodi="http://sodipodi.sourceforge.net/DTD/sodipodi-0.dtd"
   xmlns="http://www.w3.org/2000/svg"
   xmlns:svg="http://www.w3.org/2000/svg"><sodipodi:namedview
     id="namedview1"
     pagecolor="#ffffff"
     bordercolor="#000000"
     borderopacity="0.25"
     inkscape:showpageshadow="2"
     inkscape:pageopacity="0.0"
     inkscape:pagecheckerboard="0"
     inkscape:deskcolor="#d1d1d1"
     inkscape:document-units="mm"><inkscape:page
       x="-2.8013849e-23"
       y="0"
       width="141.65256"
       height="141.92729"
       id="page2"
       margin="0"
       bleed="0" /></sodipodi:namedview><defs
     id="defs1" /><g
     inkscape:label="Calque 1"
     inkscape:groupmode="layer"
     id="layer1"
     transform="translate(-11.813954,-132.50467)"><g
       id="g1"
       transform="translate(-39.779796,115.96822)"><path
         style="fill:#b5b5b5"
         d="m 131.31038,158.15469 c -0.13878,-0.1819 -0.70512,-1.64042 -1.25852,-3.24115 -8.01862,-23.19392 -24.80403,-44.9256 -45.914687,-59.444653 -8.547949,-5.878934 -19.250989,-11.297738 -28.939332,-14.651592 -1.98225,-0.686204 -3.604092,-1.36555 -3.604092,-1.509658 0,-0.168024 0.11864,-0.171346 0.33073,-0.0093 0.181901,0.139014 1.81901,0.765416 3.638021,1.392005 11.193491,3.855786 23.767965,10.624868 33.3375,17.946221 8.753783,6.697247 17.01279,14.914787 23.45409,23.336317 7.69552,10.06134 14.15092,21.90094 17.96048,32.94062 0.55238,1.60073 1.10135,3.02074 1.21994,3.15558 0.63589,0.72305 14.83848,-2.70731 15.20924,-3.6735 0.0705,-0.18381 -0.52997,-2.15959 -1.33446,-4.39063 -0.80448,-2.23104 -1.42115,-4.09799 -1.37038,-4.14876 0.0911,-0.0911 1.5668,3.8025 2.5943,6.84508 0.41273,1.22216 0.45988,1.64722 0.21538,1.94181 -0.54956,0.66218 -6.90593,2.49717 -11.87417,3.4279 -2.67366,0.50087 -3.33422,0.51596 -3.66404,0.0837 z m 32.32931,-16.66875 c -1.2924,-1.34607 -7.11852,-7.26943 -12.94693,-13.16302 -5.82842,-5.8936 -14.11401,-14.2875 -18.41244,-18.65313 C 114.61452,91.727813 83.714356,60.410663 75.456348,52.079006 70.239809,46.815944 66.664387,43.010011 66.717463,42.776718 66.96515,41.688024 75.056826,33.387125 77.308667,31.911662 l 0.651953,-0.427176 9.665217,9.723903 c 12.718053,12.795271 18.947233,19.098109 34.214783,34.619323 6.98501,7.101053 17.18131,17.441903 22.65846,22.979667 17.44744,17.640531 30.25397,30.655561 31.83714,32.355461 l 1.53604,1.6493 -1.54191,1.79028 c -2.95252,3.42815 -9.33388,9.33091 -10.08744,9.33091 -0.13937,0 -1.31082,-1.10132 -2.60322,-2.44739 z m 5.73459,-0.28351 c 3.51673,-3.1315 7.93256,-7.88485 7.84029,-8.43956 -0.0637,-0.3832 -19.67529,-20.54132 -28.64475,-29.44308 C 145.84396,100.6145 112.92259,67.273211 100.79124,54.931766 97.088713,51.165123 90.467853,44.442323 86.078214,39.99221 l -7.98116,-8.091113 -0.749988,0.387472 c -0.860856,0.444751 -9.301685,8.752723 -9.999406,9.842017 l -0.463289,0.723295 3.93021,4.075544 c 3.71665,3.854086 27.488383,27.985946 48.772329,49.5112 5.32391,5.384275 17.93926,18.153725 28.03412,28.376565 10.40666,10.5386 18.55485,18.58698 18.81747,18.58698 0.25476,0 1.57586,-0.99078 2.93578,-2.20174 z m -29.41511,-4.34542 C 132.19196,120.54416 121.3313,105.97112 107.95,93.906495 102.87692,89.332592 100.93291,87.75489 96.04375,84.243732 89.233495,79.352941 84.909002,76.703159 77.655208,72.976373 74.890312,71.55585 72.729427,70.390356 72.85324,70.386385 c 0.364789,-0.0117 8.8825,4.311689 10.852148,5.508291 0.995011,0.604491 1.842049,1.099074 1.882306,1.099074 0.363571,0 10.148373,6.487976 11.257623,7.464554 0.222581,0.195959 0.993703,0.76949 1.713604,1.274514 8.373719,5.874311 21.943429,19.650752 28.268809,28.699472 0.4069,0.58209 1.21587,1.71318 1.79771,2.51354 3.45571,4.75358 7.33491,11.33103 10.73448,18.20107 1.53318,3.09834 2.73878,5.68218 2.6791,5.74186 -0.0597,0.0597 -0.99561,-1.75461 -2.07985,-4.03175 z m -37.0707,-15.34711 c -1.40208,-2.06427 -4.861875,-5.98112 -7.319459,-8.2864 -1.888223,-1.7712 -4.697496,-3.95462 -8.421212,-6.54513 -0.273217,-0.19007 -0.03813,-0.0976 0.522415,0.20544 2.586981,1.39866 10.744035,8.24547 11.658687,9.78598 0.133343,0.22458 0.857919,1.12271 1.610169,1.99584 1.40067,1.62574 3.17236,4.10104 2.93531,4.10104 -0.0728,0 -0.51642,-0.56555 -0.98591,-1.25677 z M 184.15,112.20046 C 173.97405,108.34065 165.99879,104.29263 157.29479,98.56948 148.43762,92.745612 143.10085,88.37187 135.18869,80.452447 121.90441,67.15598 112.49323,53.33319 105.36227,36.644498 102.6326,30.256219 99.260812,20.417848 99.608368,19.855492 100.06582,19.115317 110.27931,16.745297 113.59401,16.610154 l 1.80754,-0.0737 1.27594,3.836458 c 6.75215,20.302249 17.9774,37.717597 33.53428,52.026605 3.88875,3.576817 4.62586,4.202685 7.7102,6.546597 4.38919,3.335528 4.8848,3.683577 10.61337,7.453371 4.43118,2.916028 13.5624,7.511369 19.18654,9.655739 4.66529,1.778784 5.26971,2.039341 5.36016,2.310677 0.1602,0.480609 -1.22982,6.810719 -2.19941,10.016039 -1.14925,3.79926 -1.82555,5.39136 -2.28598,5.38148 -0.19008,-0.004 -2.19108,-0.70741 -4.44665,-1.56296 z m 5.29593,-0.48015 c 1.53504,-4.08669 3.51731,-12.798907 3.02099,-13.277461 C 192.331,98.311792 190.23324,97.42155 187.80523,96.464534 175.40148,91.575517 164.5764,85.088619 153.57704,75.953389 150.42173,73.332827 141.94745,64.818483 139.20722,61.515625 128.78737,48.956352 121.01374,34.95315 116.14727,19.976041 c -0.47283,-1.455208 -0.95985,-2.773497 -1.08226,-2.92953 -0.15171,-0.19337 -0.83543,-0.211456 -2.14744,-0.05681 -2.15113,0.253562 -8.17972,1.426306 -9.2009,1.789858 -0.36381,0.129517 -1.35804,0.42875 -2.20942,0.664962 l -1.547966,0.429477 0.176706,0.977061 c 0.54679,3.023324 4.4819,13.567938 7.39187,19.807449 7.02344,15.05956 15.50704,27.087046 27.7948,39.405614 6.14305,6.158452 8.07665,7.8973 13.29522,11.956125 8.41314,6.54345 17.57959,12.017973 27.9915,16.717503 4.09115,1.84658 10.94601,4.48237 11.6888,4.4945 0.46191,0.008 0.68973,-0.29255 1.14775,-1.51194 z m -5.8251,-33.062968 c -4.12224,-0.286682 -9.99477,-1.530026 -14.1552,-2.996969 -16.47518,-5.809046 -29.62489,-20.106326 -34.13629,-37.115336 -1.48513,-5.599291 -2.14708,-11.66589 -1.85292,-16.981496 0.2018,-3.646548 0.31492,-4.275306 0.80283,-4.462535 1.03241,-0.396176 14.52073,3.442962 15.31261,4.358384 0.0496,0.05728 0.16212,1.771026 0.25014,3.808318 0.33843,7.833067 2.3391,14.153736 6.49048,20.505208 1.72287,2.635931 5.75032,6.969466 7.97377,8.579774 7.22722,5.234234 13.53372,7.5494 21.76291,7.98933 l 3.3645,0.179865 0.55644,1.481245 c 0.87715,2.334949 2.284,7.676838 2.87743,10.925749 0.44259,2.423059 0.47997,3.034929 0.20238,3.312524 -0.33583,0.33583 -6.62206,0.612544 -9.44908,0.415939 z m 9.0158,-0.783968 c 0.59425,-0.594249 -2.35103,-12.983468 -3.51678,-14.793244 -0.10946,-0.169933 -1.26682,-0.306774 -2.8291,-0.3345 -9.45122,-0.167736 -18.5444,-4.062589 -25.4047,-10.881521 -7.25463,-7.210882 -11.29881,-16.636887 -11.47227,-26.739093 l -0.0565,-3.290038 -0.79375,-0.380708 C 146.16475,20.303734 137.3428,17.77882 135.2916,17.655732 l -1.01556,-0.06094 -0.16972,1.5875 c -0.29827,2.789906 -0.22217,8.371311 0.15693,11.509375 0.75647,6.26171 2.32446,11.537351 5.17547,17.413212 4.03781,8.321856 9.21371,14.493997 17.06559,20.350331 4.41994,3.296621 12.51255,6.985816 18.38527,8.381335 1.70517,0.405193 6.03429,1.110576 8.0698,1.314884 2.18892,0.219707 9.38629,0.01291 9.67725,-0.278055 z M 51.757692,76.067708 c 0.130521,-1.728287 1.216775,-6.4741 2.225568,-9.723437 0.729403,-2.349418 0.859143,-2.579688 1.453456,-2.579688 0.747897,0 7.453203,2.343525 11.370575,3.97405 1.455209,0.605701 2.876977,1.169795 3.159485,1.253544 0.282508,0.08375 0.996883,0.441473 1.5875,0.794943 1.32148,0.790874 0.971538,0.675303 -2.233443,-0.737608 -2.691357,-1.186481 -9.752914,-3.866227 -12.208349,-4.632871 -0.820998,-0.256334 -1.665594,-0.399726 -1.876879,-0.318648 -0.584246,0.224196 -2.445524,7.022225 -3.458375,12.631174 -0.06569,0.363802 -0.07449,0.06614 -0.01954,-0.661459 z M 171.84688,50.05092 c -5.27794,-1.3715 -9.60257,-5.547733 -11.14264,-10.760295 -0.56268,-1.904436 -0.63525,-6.112565 -0.13232,-7.672917 0.84334,-2.616536 1.17546,-3.307055 1.58746,-3.300595 0.41141,0.0065 1.38251,0.654703 4.69908,3.13682 2.86236,2.142181 10.65199,10.249141 13.06367,13.595842 1.23392,1.712324 2.2435,3.314706 2.2435,3.560848 0,0.316867 -0.53674,0.631668 -1.83836,1.078203 -2.51868,0.86407 -5.97992,1.011857 -8.48039,0.362094 z m 8.44465,-0.735604 c 0.7155,-0.274951 1.34657,-0.636915 1.40239,-0.804363 0.2298,-0.689408 -4.88435,-6.945653 -9.16431,-11.210876 -4.10199,-4.087867 -9.37483,-8.460494 -10.20231,-8.460494 -0.20035,0 -0.63273,0.684609 -0.96085,1.521354 -0.81288,2.072998 -0.88711,7.121544 -0.13712,9.326563 1.62535,4.778668 5.79235,8.755657 10.38844,9.914739 2.16052,0.544861 6.91884,0.387459 8.67376,-0.286923 z"
         id="path9" /><path
         style="fill:#8a8a8a"
         d="m 107.55312,157.42044 c -2.03729,-0.42862 -4.00182,-0.89226 -4.36562,-1.03032 -0.3638,-0.13805 -1.37583,-0.44825 -2.24896,-0.68934 -1.807907,-0.49919 -4.094527,-1.43272 -4.114354,-1.67972 -0.0073,-0.0912 -0.06339,-1.17788 -0.124603,-2.41481 -0.253601,-5.12479 -0.823898,-8.15814 -2.288229,-12.17083 C 89.065415,124.78598 74.444712,114.56458 58.836086,114.56458 H 56.32713 l -0.651297,-1.4727 c -1.556259,-3.51897 -4.061556,-13.466825 -3.526794,-14.003935 0.448911,-0.450883 5.216985,-0.64074 9.442861,-0.375999 15.131069,0.947925 28.533759,7.626424 38.381563,19.125364 3.871337,4.52042 6.591507,9.05149 8.881117,14.79352 2.43446,6.10532 3.56081,11.57769 3.76946,18.31396 0.15841,5.11417 -0.0755,7.11858 -0.84032,7.19935 -0.28954,0.0306 -2.1933,-0.29508 -4.2306,-0.7237 z m 4.67318,-0.94055 c 0.97262,-7.22429 -1.14171,-18.72159 -4.9104,-26.70176 -3.67236,-7.77622 -9.652896,-15.03426 -16.8284,-20.42314 C 83.524796,104.12593 73.986521,100.40122 64.565274,99.232332 62.167123,98.934795 53.971513,98.855968 52.982812,99.12093 52.615447,99.21938 52.3875,99.484401 52.3875,99.813064 c 0,1.797976 3.200982,13.164956 3.967331,14.088356 0.177393,0.21374 1.512008,0.37314 3.905759,0.46648 5.798047,0.22609 10.48162,1.46105 15.851821,4.1798 3.681228,1.86369 5.771189,3.34614 8.856047,6.28178 4.862847,4.62763 8.12322,9.68692 10.154024,15.75653 1.073083,3.2072 1.671236,6.48305 1.924913,10.54202 l 0.18698,2.99176 3.426635,1.12613 c 3.18804,1.04772 10.52634,2.76701 11.12545,2.60658 0.14552,-0.039 0.34345,-0.65664 0.43984,-1.37261 z m 19.14241,1.41021 C 126.71736,144.22742 120.74043,132.93745 112.35409,121.97292 105.91279,113.55139 97.653783,105.33385 88.9,98.636602 79.330465,91.315249 66.755991,84.546167 55.5625,80.690381 c -1.819011,-0.626589 -3.4669,-1.261937 -3.661976,-1.411886 -0.262009,-0.201397 -0.30841,-0.656486 -0.177585,-1.74171 0.514919,-4.271381 2.844058,-13.182223 3.512666,-13.438792 0.477551,-0.183254 2.222809,0.357213 7.470645,2.313486 12.279091,4.577367 22.474062,10.030664 33.3375,17.832253 11.46123,8.230891 21.51303,18.159178 30.29627,29.923978 6.09661,8.16616 12.17799,18.79621 16.12052,28.17812 1.85885,4.42344 4.43181,11.66256 4.28299,12.05036 -0.22219,0.57903 -6.74459,2.46898 -11.76911,3.41025 -2.67354,0.50085 -3.45749,0.51904 -3.60571,0.0837 z m 5.95004,-0.90459 c 3.35904,-0.74255 6.95963,-1.74509 8.34236,-2.32283 l 0.89665,-0.37465 -0.75215,-2.20079 c -1.09153,-3.19375 -2.63639,-7.28047 -3.36036,-8.88935 -0.34572,-0.7683 -0.62858,-1.44421 -0.62858,-1.50203 0,-0.46024 -4.38027,-9.31223 -6.29008,-12.71148 -9.35922,-16.65841 -21.98281,-31.122856 -37.231876,-42.661266 -3.42257,-2.589734 -9.13202,-6.502763 -11.643673,-7.980109 -8.74613,-5.144443 -15.502533,-8.417562 -23.728824,-11.495356 -5.479711,-2.050185 -7.376942,-2.643282 -7.62882,-2.38486 -0.587087,0.602343 -2.817903,9.544205 -3.297373,13.216984 l -0.175909,1.347482 3.6232,1.254258 c 14.380338,4.978102 27.231063,12.462616 40.234723,23.433487 3.019432,2.54742 9.720472,9.24776 12.273622,12.27235 11.03114,13.06799 18.17902,25.63865 23.69299,41.66776 0.15014,0.43645 1.26689,0.30466 5.6741,-0.6696 z M 81.227083,146.00636 c -3.459812,-2.48737 -6.172383,-4.84869 -9.856709,-8.58039 -3.592376,-3.63856 -7.92811,-8.98172 -7.807616,-9.62174 0.120585,-0.64051 3.531761,-1.65025 6.079837,-1.79969 2.892534,-0.16964 5.072715,0.24044 7.540556,1.41832 6.388832,3.04936 9.798955,10.36532 8.051854,17.27417 -0.566506,2.24022 -0.918102,2.94632 -1.460631,2.93333 -0.164083,-0.004 -1.310364,-0.73473 -2.547291,-1.624 z m 3.254442,0.36316 c 1.688702,-4.22049 1.078749,-9.7514 -1.494159,-13.54869 -3.951497,-5.83191 -11.801756,-8.22691 -18.106988,-5.52417 l -1.148531,0.49232 0.479389,0.8195 c 1.888328,3.22803 9.836282,11.5678 14.399382,15.10925 2.551572,1.98029 4.963333,3.65519 5.263259,3.65519 0.113391,0 0.386833,-0.45153 0.607648,-1.0034 z M 147.62103,124.81719 C 137.52617,114.59435 124.91082,101.8249 119.58691,96.440625 98.302964,74.915371 74.531231,50.783511 70.814581,46.929425 l -3.93021,-4.075544 0.463289,-0.723295 c 0.697721,-1.089294 9.13855,-9.397266 9.999406,-9.842017 l 0.749988,-0.387472 7.98116,8.091113 c 4.389639,4.450113 11.010499,11.172913 14.713026,14.939556 12.13135,12.341445 45.05272,45.682734 47.77858,48.388024 8.96946,8.90176 28.581,29.05988 28.64475,29.44308 0.15332,0.92173 -9.68934,10.6413 -10.77607,10.6413 -0.26262,0 -8.41081,-8.04838 -18.81747,-18.58698 z m 21.87204,15.98297 c 3.35998,-2.98159 7.38089,-7.32916 7.38089,-7.98051 0,-0.46816 -10.6412,-11.35044 -46.05135,-47.09465 C 120.32187,75.125201 91.222919,45.578033 81.640069,35.784895 c -1.886748,-1.928151 -3.559763,-3.505729 -3.717812,-3.505729 -0.746163,0 -8.603161,7.562585 -10.228638,9.845357 l -0.516754,0.725714 4.180838,4.346422 c 2.299461,2.390533 12.158026,12.424308 21.907922,22.297279 9.749895,9.872971 30.096975,30.482184 45.215735,45.798252 15.11875,15.31607 27.68816,27.84739 27.93201,27.84739 0.24386,0 1.62972,-1.05274 3.0797,-2.33942 z"
         id="path8" /><path
         style="fill:#6c6c6c"
         d="m 171.61777,49.602239 c -4.59609,-1.159082 -8.76309,-5.136071 -10.38844,-9.914739 -0.74999,-2.205019 -0.67576,-7.253565 0.13712,-9.326563 0.32812,-0.836745 0.7605,-1.521354 0.96085,-1.521354 0.82748,0 6.10032,4.372627 10.20231,8.460494 4.27996,4.265223 9.39411,10.521468 9.16431,11.210876 -0.39057,1.171699 -6.94322,1.881377 -10.07615,1.091286 z"
         id="path7" /><path
         style="fill:#606060"
         d="M 182.95938,78.151428 C 176.2649,77.47949 170.39213,75.876527 164.6419,73.1517 c -4.34152,-2.057288 -6.92733,-3.685958 -10.91305,-6.873575 -10.55919,-8.444798 -17.78186,-21.649087 -19.4656,-35.586459 -0.3791,-3.138064 -0.4552,-8.719469 -0.15693,-11.509375 l 0.16972,-1.5875 1.01556,0.06094 c 2.0512,0.123088 10.87315,2.648002 13.27194,3.798538 l 0.79375,0.380708 0.0565,3.290038 c 0.10029,5.8406 1.73045,12.263636 4.36747,17.208317 6.59424,12.364907 19.02986,20.173066 32.5095,20.412297 1.56228,0.02773 2.71964,0.164567 2.8291,0.3345 1.16575,1.809776 4.11103,14.198995 3.51678,14.793244 -0.29096,0.290961 -7.48833,0.497761 -9.67725,0.278054 z"
         id="path6" /><path
         style="fill:#575757"
         d="m 184.15,111.6746 c -12.43314,-4.70343 -24.39387,-11.29751 -34.54264,-19.043754 -5.91374,-4.513774 -10.59005,-8.664869 -15.63531,-13.879225 -12.0917,-12.496988 -21.37121,-26.414226 -28.09319,-42.133668 -2.74487,-6.418911 -6.075369,-16.149514 -5.66352,-16.546895 0.58292,-0.562443 9.60108,-2.620145 13.1668,-3.00431 l 1.59567,-0.171916 1.38847,4.186438 c 6.75448,20.365719 19.09463,38.988155 35.37226,53.380025 11.5839,10.241907 23.73198,17.53794 38.56758,23.163363 l 2.31966,0.879578 -0.16147,0.95257 c -0.7965,4.698734 -3.34337,13.533494 -3.94868,13.697514 -0.14553,0.0394 -2.11006,-0.62645 -4.36563,-1.47972 z"
         id="path5" /><path
         style="fill:#505050"
         d="m 131.64465,157.65511 c -3.91831,-11.39053 -7.89,-19.53839 -14.04154,-28.80604 -4.95656,-7.46734 -9.60602,-13.18239 -15.60457,-19.18094 C 88.753607,96.423197 72.578975,86.213436 55.443315,80.281513 l -3.6232,-1.254258 0.175909,-1.347482 c 0.47947,-3.672779 2.710286,-12.614641 3.297373,-13.216984 0.251878,-0.258422 2.149109,0.334675 7.62882,2.38486 8.226291,3.077794 14.982694,6.350913 23.728824,11.495356 2.511653,1.477346 8.221103,5.390375 11.643673,7.980109 15.249066,11.53841 27.872656,26.002856 37.231876,42.661266 1.90981,3.39925 6.29008,12.25124 6.29008,12.71148 0,0.0578 0.28286,0.73373 0.62858,1.50203 0.72397,1.60888 2.26883,5.6956 3.36036,8.88935 l 0.75215,2.20079 -0.89665,0.37465 c -2.07706,0.86785 -9.45226,2.72005 -12.63879,3.1741 -0.94393,0.1345 -1.28435,0.0896 -1.37767,-0.18167 z"
         id="path4" /><path
         style="fill:#4d4d4d"
         d="M 138.48136,115.29219 C 123.3626,99.976122 103.01552,79.366909 93.265625,69.493938 83.515729,59.620967 73.657164,49.587192 71.357703,47.196659 l -4.180838,-4.346422 0.516754,-0.725714 c 1.625477,-2.282772 9.482475,-9.845357 10.228638,-9.845357 0.158049,0 1.831064,1.577578 3.717812,3.505729 9.58285,9.793138 38.681801,39.340306 49.182541,49.940105 35.41015,35.74421 46.05135,46.62649 46.05135,47.09465 0,1.06414 -9.38194,10.31993 -10.46059,10.31993 -0.24385,0 -12.81326,-12.53132 -27.93201,-27.84739 z"
         id="path3" /><path
         style="fill:#484848"
         d="m 107.42083,157.00095 c -2.88029,-0.60389 -9.320606,-2.51012 -9.948069,-2.94446 -0.165108,-0.11429 -0.361148,-1.5163 -0.453599,-3.24399 -0.570593,-10.66309 -4.756065,-19.56289 -12.492537,-26.56358 -6.881489,-6.22703 -15.358408,-9.6785 -24.730792,-10.06943 l -3.307292,-0.13795 -0.591795,-1.44964 c -1.457524,-3.57031 -3.836338,-12.869669 -3.402971,-13.303037 0.329412,-0.329412 7.533992,-0.392801 10.625438,-0.09349 19.169091,1.855957 35.282768,12.855597 43.638707,29.789007 3.28367,6.65437 4.89093,12.59936 5.37306,19.87396 0.11464,1.72963 0.19191,3.50197 0.17172,3.93854 -0.0202,0.43656 -0.0553,1.71648 -0.078,2.84427 l -0.0413,2.05052 -0.85989,-0.0264 c -0.47295,-0.0145 -2.22912,-0.31346 -3.90261,-0.66433 z M 81.063954,145.49186 c -6.046375,-4.36367 -11.535925,-9.7643 -15.937906,-15.67975 -1.281649,-1.7223 -1.467995,-2.28812 -0.750538,-2.27889 0.226147,0.003 0.219911,0.0645 -0.02209,0.21805 -0.630841,0.40036 4.265817,6.46688 8.578153,10.62756 3.254512,3.14006 4.819758,4.45772 8.153383,6.86366 2.42063,1.74702 2.663823,1.8644 2.976563,1.4367 0.18731,-0.25616 0.340564,-0.33851 0.340564,-0.18299 0,0.15552 -0.162705,0.41779 -0.361566,0.58283 -0.283693,0.23544 -0.924783,-0.1064 -2.976563,-1.58717 z"
         id="path2" /><path
         style="fill:#323232"
         d="m 81.057026,145.22226 c -6.007274,-4.33541 -11.303789,-9.5479 -15.688232,-15.43937 l -1.374777,-1.84731 1.065234,-0.45241 c 1.422269,-0.60404 3.734765,-1.01321 5.699238,-1.00843 8.32415,0.0203 15.057776,7.40419 14.346139,15.73158 -0.166621,1.94975 -0.819265,4.51482 -1.210206,4.75643 -0.126131,0.0779 -1.402959,-0.70527 -2.837396,-1.74049 z"
         id="path1" /></g></g></svg>
