<?xml version="1.0" encoding="UTF-8" standalone="no"?>
<svg
   width="247.95087"
   height="75.019997"
   viewBox="0 0 247.95087 75.019997"
   version="1.1"
   id="svg23"
   sodipodi:docname="Logo-ULB.svg"
   xmlns:inkscape="http://www.inkscape.org/namespaces/inkscape"
   xmlns:sodipodi="http://sodipodi.sourceforge.net/DTD/sodipodi-0.dtd"
   xmlns:xlink="http://www.w3.org/1999/xlink"
   xmlns="http://www.w3.org/2000/svg"
   xmlns:svg="http://www.w3.org/2000/svg">
  <sodipodi:namedview
     id="namedview23"
     pagecolor="#ffffff"
     bordercolor="#000000"
     borderopacity="0.25"
     inkscape:showpageshadow="2"
     inkscape:pageopacity="0.0"
     inkscape:pagecheckerboard="0"
     inkscape:deskcolor="#d1d1d1"
     showgrid="false"
     inkscape:export-bgcolor="#ffffff00">
    <inkscape:page
       x="0"
       y="0"
       width="247.95087"
       height="75.019997"
       id="page2"
       margin="0"
       bleed="0" />
  </sodipodi:namedview>
  <!-- Generator: Sketch 51.2 (57519) - http://www.bohemiancoding.com/sketch -->
  <title
     id="title1">Logo-ULB</title>
  <desc
     id="desc1">Created with Sketch.</desc>
  <defs
     id="defs1">
    <polygon
       id="path-1"
       points="0,20.363308 0,0.056890909 18.23566,0.056890909 18.23566,20.363308 " />
    <polygon
       id="path-3"
       points="0.56773095,19.726446 0.56773095,0.0025454545 17.390246,0.0025454545 17.390246,19.726446 " />
    <polygon
       id="path-5"
       points="0,20.363308 0,0.056890909 18.23566,0.056890909 18.23566,20.363308 " />
    <polygon
       id="path-7"
       points="0.56773095,19.726446 0.56773095,0.0025454545 17.390246,0.0025454545 17.390246,19.726446 " />
    <polygon
       id="path-9"
       points="0,20.363308 0,0.056890909 18.23566,0.056890909 18.23566,20.363308 " />
    <polygon
       id="path-11"
       points="0.56773095,19.726446 0.56773095,0.0025454545 17.390246,0.0025454545 17.390246,19.726446 " />
    <polygon
       id="path-13"
       points="0,20.363308 0,0.056890909 18.23566,0.056890909 18.23566,20.363308 " />
    <polygon
       id="path-15"
       points="0.56773095,19.726446 0.56773095,0.0025454545 17.390246,0.0025454545 17.390246,19.726446 " />
  </defs>
  <g
     id="Logo-ULB"
     stroke="none"
     stroke-width="1"
     fill="none"
     fill-rule="evenodd"
     inkscape:export-filename="Logo-ULB.png"
     inkscape:export-xdpi="96"
     inkscape:export-ydpi="96"
     transform="translate(-3.7825271,-1.9453545)">
    <g
       id="Page-1"
       transform="translate(12.413386,37.188987)"
       inkscape:export-filename="Logo-ULB.svg"
       inkscape:export-xdpi="96"
       inkscape:export-ydpi="96">
      <polygon
         id="Fill-1"
         fill="#f7cb90"
         points="34.164179,17.288982 34.164179,12.277618 29.194798,17.288982 " />
      <polygon
         id="Fill-2"
         fill="#fffffe"
         points="34.163989,17.288918 27.00962,17.288918 27.00962,3.5969182 29.614192,3.5969182 29.614192,0.63655454 20.001632,0.63655454 20.001632,3.5969182 22.349406,3.5969182 22.349406,17.399645 20.001632,17.399645 20.001632,20.360646 34.163989,20.360646 " />
      <g
         id="Group-9"
         transform="translate(0,0.633945)">
        <g
           id="Group-5">
          <mask
             id="mask-2"
             fill="#ffffff">
            <use
               xlink:href="#path-1"
               id="use1" />
          </mask>
          <g
             id="Clip-4" />
          <path
             d="m 13.649267,18.970891 c 1.749,-1.425455 2.129464,-3.001727 2.128202,-5.383 l -0.0025,-10.5674546 2.460714,-0.00255 V 0.05689091 l -7.230714,0.0025454 V 3.0204364 l 1.54331,-0.00255 V 14.0868 c 0,1.552727 -1.253072,2.807 -2.7919645,2.808273 -2.0121072,0.0019 -2.7869167,-1.258091 -2.7869167,-2.810182 V 14.068346 3.0153455 l 1.6165,0.00255 0.1325,-2.96099999 H 0.13237381 L -1.2619048e-4,3.0178909 H 2.3022191 l 0.00946,10.3243631 c 0,2.138819 0.039119,3.369546 1.1609524,4.935637 1.007,1.405727 2.7604167,2.092364 5.5605834,2.085363 1.9723571,-0.0045 3.5106191,-0.491272 4.6160481,-1.392363"
             id="Fill-3"
             fill="#fffffe"
             mask="url(#mask-2)" />
        </g>
        <g
           id="Group-8"
           transform="translate(35.333333)">
          <mask
             id="mask-4"
             fill="#ffffff">
            <use
               xlink:href="#path-3"
               id="use2" />
          </mask>
          <g
             id="Clip-7" />
          <path
             d="m 9.5499691,16.657264 c 1.9931789,-0.0095 2.8979639,-1.001637 2.9036429,-2.756728 0.005,-1.808545 -1.201964,-3.052636 -2.9112144,-3.058363 l -1.8587857,0.0032 0.00189,5.81191 z M 9.3070524,7.9938091 C 10.898314,7.9982636 11.788588,7.0449909 11.793005,5.5189909 11.797421,3.9459 10.787898,2.9652636 9.3020048,2.9608091 l -1.6165,0.00191 v 5.033 z m 5.8180116,1.8257273 c 1.361595,0.9545456 2.256286,2.5212726 2.265119,4.4112726 0.01577,2.963545 -2.950964,5.498182 -5.687404,5.494364 l -11.02273852,0.0013 -0.002524,-3.07109 H 2.9161357 V 2.9627182 H 0.56773095 V 0.00235455 H 11.721707 c 2.738964,0 4.96181,2.15663635 4.96181,4.85036365 0,1.2205454 -0.603822,2.6619091 -1.565393,3.5521818 l -1.31806,0.8279091 z"
             id="Fill-6"
             fill="#fffffe"
             mask="url(#mask-4)" />
        </g>
      </g>
    </g>
    <g
       id="Page-1-Copy-2"
       transform="translate(3.7825272,1.9653545)">
      <polygon
         id="polygon2"
         fill="#004d95"
         points="0,0 0,75 75,75 75,0 " />
      <g
         id="g9"
         transform="translate(10,26)">
        <polygon
           id="polygon3"
           fill="#abaecf"
           points="34.164179,17.288982 34.164179,12.277618 29.194798,17.288982 " />
        <polygon
           id="polygon4"
           fill="#fffffe"
           points="34.163989,17.288918 27.00962,17.288918 27.00962,3.5969182 29.614192,3.5969182 29.614192,0.63655454 20.001632,0.63655454 20.001632,3.5969182 22.349406,3.5969182 22.349406,17.399645 20.001632,17.399645 20.001632,20.360646 34.163989,20.360646 " />
        <g
           id="g8"
           transform="translate(0,0.633945)">
          <g
             id="g5">
            <mask
               id="mask-6"
               fill="#ffffff">
              <use
                 xlink:href="#path-5"
                 id="use4" />
            </mask>
            <g
               id="g4" />
            <path
               d="m 13.649267,18.970891 c 1.749,-1.425455 2.129464,-3.001727 2.128202,-5.383 l -0.0025,-10.5674546 2.460714,-0.00255 V 0.05689091 l -7.230714,0.0025454 V 3.0204364 l 1.54331,-0.00255 V 14.0868 c 0,1.552727 -1.253072,2.807 -2.7919645,2.808273 -2.0121072,0.0019 -2.7869167,-1.258091 -2.7869167,-2.810182 V 14.068346 3.0153455 l 1.6165,0.00255 0.1325,-2.96099999 H 0.13237381 L -1.2619048e-4,3.0178909 H 2.3022191 l 0.00946,10.3243631 c 0,2.138819 0.039119,3.369546 1.1609524,4.935637 1.007,1.405727 2.7604167,2.092364 5.5605834,2.085363 1.9723571,-0.0045 3.5106191,-0.491272 4.6160481,-1.392363"
               id="path4"
               fill="#fffffe"
               mask="url(#mask-6)" />
          </g>
          <g
             id="g7"
             transform="translate(35.333333)">
            <mask
               id="mask-8"
               fill="#ffffff">
              <use
                 xlink:href="#path-7"
                 id="use5" />
            </mask>
            <g
               id="g6" />
            <path
               d="m 9.5499691,16.657264 c 1.9931789,-0.0095 2.8979639,-1.001637 2.9036429,-2.756728 0.005,-1.808545 -1.201964,-3.052636 -2.9112144,-3.058363 l -1.8587857,0.0032 0.00189,5.81191 z M 9.3070524,7.9938091 C 10.898314,7.9982636 11.788588,7.0449909 11.793005,5.5189909 11.797421,3.9459 10.787898,2.9652636 9.3020048,2.9608091 l -1.6165,0.00191 v 5.033 z m 5.8180116,1.8257273 c 1.361595,0.9545456 2.256286,2.5212726 2.265119,4.4112726 0.01577,2.963545 -2.950964,5.498182 -5.687404,5.494364 l -11.02273852,0.0013 -0.002524,-3.07109 H 2.9161357 V 2.9627182 H 0.56773095 V 0.00235455 H 11.721707 c 2.738964,0 4.96181,2.15663635 4.96181,4.85036365 0,1.2205454 -0.603822,2.6619091 -1.565393,3.5521818 l -1.31806,0.8279091 z"
               id="path6"
               fill="#fffffe"
               mask="url(#mask-8)" />
          </g>
        </g>
      </g>
    </g>
    <g
       id="g15"
       transform="translate(12.413386,37.188987)">
      <polygon
         id="polygon9"
         fill="#f7cb90"
         points="34.164179,17.288982 34.164179,12.277618 29.194798,17.288982 " />
      <polygon
         id="polygon10"
         fill="#fffffe"
         points="34.163989,17.288918 27.00962,17.288918 27.00962,3.5969182 29.614192,3.5969182 29.614192,0.63655454 20.001632,0.63655454 20.001632,3.5969182 22.349406,3.5969182 22.349406,17.399645 20.001632,17.399645 20.001632,20.360646 34.163989,20.360646 " />
      <g
         id="g14"
         transform="translate(0,0.633945)">
        <g
           id="g11">
          <mask
             id="mask-10"
             fill="#ffffff">
            <use
               xlink:href="#path-9"
               id="use10" />
          </mask>
          <g
             id="g10" />
          <path
             d="m 13.649267,18.970891 c 1.749,-1.425455 2.129464,-3.001727 2.128202,-5.383 l -0.0025,-10.5674546 2.460714,-0.00255 V 0.05689091 l -7.230714,0.0025454 V 3.0204364 l 1.54331,-0.00255 V 14.0868 c 0,1.552727 -1.253072,2.807 -2.7919645,2.808273 -2.0121072,0.0019 -2.7869167,-1.258091 -2.7869167,-2.810182 V 14.068346 3.0153455 l 1.6165,0.00255 0.1325,-2.96099999 H 0.13237381 L -1.2619048e-4,3.0178909 H 2.3022191 l 0.00946,10.3243631 c 0,2.138819 0.039119,3.369546 1.1609524,4.935637 1.007,1.405727 2.7604167,2.092364 5.5605834,2.085363 1.9723571,-0.0045 3.5106191,-0.491272 4.6160481,-1.392363"
             id="path10"
             fill="#fffffe"
             mask="url(#mask-10)" />
        </g>
        <g
           id="g13"
           transform="translate(35.333333)">
          <mask
             id="mask-12"
             fill="#ffffff">
            <use
               xlink:href="#path-11"
               id="use11" />
          </mask>
          <g
             id="g12" />
          <path
             d="m 9.5499691,16.657264 c 1.9931789,-0.0095 2.8979639,-1.001637 2.9036429,-2.756728 0.005,-1.808545 -1.201964,-3.052636 -2.9112144,-3.058363 l -1.8587857,0.0032 0.00189,5.81191 z M 9.3070524,7.9938091 C 10.898314,7.9982636 11.788588,7.0449909 11.793005,5.5189909 11.797421,3.9459 10.787898,2.9652636 9.3020048,2.9608091 l -1.6165,0.00191 v 5.033 z m 5.8180116,1.8257273 c 1.361595,0.9545456 2.256286,2.5212726 2.265119,4.4112726 0.01577,2.963545 -2.950964,5.498182 -5.687404,5.494364 l -11.02273852,0.0013 -0.002524,-3.07109 H 2.9161357 V 2.9627182 H 0.56773095 V 0.00235455 H 11.721707 c 2.738964,0 4.96181,2.15663635 4.96181,4.85036365 0,1.2205454 -0.603822,2.6619091 -1.565393,3.5521818 l -1.31806,0.8279091 z"
             id="path12"
             fill="#fffffe"
             mask="url(#mask-12)" />
        </g>
      </g>
    </g>
    <g
       id="g23"
       transform="translate(3.7825272,1.9653545)">
      <polygon
         id="polygon15"
         fill="#004d95"
         points="0,0 0,75 75,75 75,0 " />
      <g
         id="g22"
         transform="translate(10,26)">
        <polygon
           id="polygon16"
           fill="#abaecf"
           points="34.164179,17.288982 34.164179,12.277618 29.194798,17.288982 " />
        <polygon
           id="polygon17"
           fill="#fffffe"
           points="34.163989,17.288918 27.00962,17.288918 27.00962,3.5969182 29.614192,3.5969182 29.614192,0.63655454 20.001632,0.63655454 20.001632,3.5969182 22.349406,3.5969182 22.349406,17.399645 20.001632,17.399645 20.001632,20.360646 34.163989,20.360646 " />
        <g
           id="g21"
           transform="translate(0,0.633945)">
          <g
             id="g18">
            <mask
               id="mask-14"
               fill="#ffffff">
              <use
                 xlink:href="#path-13"
                 id="use17" />
            </mask>
            <g
               id="g17" />
            <path
               d="m 13.649267,18.970891 c 1.749,-1.425455 2.129464,-3.001727 2.128202,-5.383 l -0.0025,-10.5674546 2.460714,-0.00255 V 0.05689091 l -7.230714,0.0025454 V 3.0204364 l 1.54331,-0.00255 V 14.0868 c 0,1.552727 -1.253072,2.807 -2.7919645,2.808273 -2.0121072,0.0019 -2.7869167,-1.258091 -2.7869167,-2.810182 V 14.068346 3.0153455 l 1.6165,0.00255 0.1325,-2.96099999 H 0.13237381 L -1.2619048e-4,3.0178909 H 2.3022191 l 0.00946,10.3243631 c 0,2.138819 0.039119,3.369546 1.1609524,4.935637 1.007,1.405727 2.7604167,2.092364 5.5605834,2.085363 1.9723571,-0.0045 3.5106191,-0.491272 4.6160481,-1.392363"
               id="path17"
               fill="#fffffe"
               mask="url(#mask-14)" />
          </g>
          <g
             id="g20"
             transform="translate(35.333333)">
            <mask
               id="mask-16"
               fill="#ffffff">
              <use
                 xlink:href="#path-15"
                 id="use18" />
            </mask>
            <g
               id="g19" />
            <path
               d="m 9.5499691,16.657264 c 1.9931789,-0.0095 2.8979639,-1.001637 2.9036429,-2.756728 0.005,-1.808545 -1.201964,-3.052636 -2.9112144,-3.058363 l -1.8587857,0.0032 0.00189,5.81191 z M 9.3070524,7.9938091 C 10.898314,7.9982636 11.788588,7.0449909 11.793005,5.5189909 11.797421,3.9459 10.787898,2.9652636 9.3020048,2.9608091 l -1.6165,0.00191 v 5.033 z m 5.8180116,1.8257273 c 1.361595,0.9545456 2.256286,2.5212726 2.265119,4.4112726 0.01577,2.963545 -2.950964,5.498182 -5.687404,5.494364 l -11.02273852,0.0013 -0.002524,-3.07109 H 2.9161357 V 2.9627182 H 0.56773095 V 0.00235455 H 11.721707 c 2.738964,0 4.96181,2.15663635 4.96181,4.85036365 0,1.2205454 -0.603822,2.6619091 -1.565393,3.5521818 l -1.31806,0.8279091 z"
               id="path19"
               fill="#fffffe"
               mask="url(#mask-16)" />
          </g>
        </g>
      </g>
    </g>
    <path
       d="m 97.491386,17.213354 c 0,1.914 -0.11,2.376 -0.792,3.212 -0.77,0.946 -2.024,1.782 -4.356,1.782 -2.288,0 -3.806,-0.726 -4.576,-2.112 -0.396,-0.704 -0.484,-1.122 -0.484,-2.706 V 6.8073545 h 2.134 v 9.7899995 c 0,1.1 0.11,2.442 0.55,2.948 0.418,0.484 1.188,0.858 2.398,0.858 1.144,0 1.98,-0.352 2.464,-0.99 0.374,-0.484 0.55,-1.298 0.55,-2.508 V 6.8073545 h 2.112 z m 16.648004,4.752 h -2.266 l -3.982,-8.052 c -0.77,-1.562 -1.562,-3.278 -1.848,-4.1579995 l -0.132,0.022 c 0.11,1.2979995 0.154,2.8159995 0.176,4.2239995 l 0.088,7.964 h -2.134 V 6.8073545 h 2.464 l 4.224,8.3599995 c 0.638,1.254 1.386,3.212 1.496,3.63 l 0.132,-0.044 c -0.044,-0.44 -0.22,-2.838 -0.22,-4.51 l -0.044,-7.4359995 h 2.046 z m 8.816,0 h -2.156 V 6.8073545 h 2.156 z m 17.176,-15.1579995 -5.148,15.2019995 h -2.068 l -5.06,-15.2019995 h 2.332 l 2.904,9.1299995 c 0.176,0.528 0.418,1.342 0.572,2.002 0.11,0.484 0.198,0.836 0.242,1.144 h 0.132 c 0.242,-0.99 0.55,-2.024 0.924,-3.168 l 2.97,-9.1079995 z m 13.392,15.1579995 h -8.492 V 6.8073545 h 8.25 l -0.286,1.738 h -5.808 v 4.6199995 h 4.862 v 1.782 h -4.862 v 5.192 h 6.336 z m 15.372,0 h -2.574 c -0.44,-0.858 -0.638,-1.21 -1.254,-2.244 -1.166,-1.936 -1.54,-2.574 -2.618,-3.784 -0.396,-0.44 -0.726,-0.66 -1.364,-0.682 v 6.71 h -2.112 V 6.8073545 h 4.246 c 1.804,0 2.86,0.418 3.586,1.1 0.682,0.638 1.342,1.65 1.342,3.1239995 0,2.31 -1.452,4.158 -3.872,4.158 h -0.176 c 0.66,0.55 0.858,0.792 1.32,1.408 0.308,0.418 0.77,1.078 1.276,1.87 z m -2.97,-10.912 c 0,-1.0559995 -0.572,-1.8919995 -1.408,-2.2219995 -0.44,-0.176 -1.056,-0.286 -1.848,-0.286 h -1.584 v 5.2799995 h 1.474 c 1.342,0 2.09,-0.22 2.618,-0.726 0.462,-0.44 0.748,-1.166 0.748,-2.046 z m 18.034,6.49 c 0,2.112 -1.738,4.708 -5.72,4.708 -1.738,0 -3.41,-0.44 -4.884,-1.342 l 0.836,-1.628 c 1.32,0.814 2.574,1.254 4.092,1.254 1.98,0 3.278,-1.012 3.278,-2.64 0,-1.232 -0.814,-2.09 -2.508,-2.574 l -1.584,-0.462 c -2.288,-0.66 -3.586,-1.76 -3.586,-3.916 0,-2.6179995 2.024,-4.3999995 5.016,-4.3999995 1.672,0 3.3,0.484 4.642,1.43 l -0.946,1.496 c -1.408,-0.858 -2.354,-1.188 -3.608,-1.188 -1.694,0 -2.75,0.88 -2.75,2.2879995 0,1.078 0.616,1.694 2.244,2.178 l 1.782,0.528 c 2.024,0.594 3.696,1.914 3.696,4.268 z m 7.826,4.422 h -2.156 V 6.8073545 h 2.156 z m 15.416,-15.1579995 -0.22,1.76 h -3.938 V 21.965354 h -2.09 V 8.5673545 h -3.938 v -1.76 z m 12.842,15.1579995 h -8.492 V 6.8073545 h 8.25 l -0.286,1.738 h -5.808 v 4.6199995 h 4.862 v 1.782 h -4.862 v 5.192 h 6.336 z m -1.254,-18.1499995 -4.774,2.244 -0.638,-1.188 4.422,-2.926 z M 95.313386,46.205354 l -0.352,1.76 h -7.568 v -15.158 h 2.156 v 13.398 z m 7.166004,1.76 h -2.156 v -15.158 h 2.156 z m 16.736,-4.158 c 0,2.112 -1.298,3.454 -3.058,3.916 -0.682,0.176 -1.606,0.242 -2.398,0.242 h -4.62 v -15.158 h 3.212 c 2.552,0 3.234,0.066 4.18,0.572 1.342,0.704 2.046,1.782 2.046,3.168 0,1.584 -0.902,2.794 -2.75,3.344 2.288,0.506 3.388,1.936 3.388,3.916 z m -2.332,-0.242 c 0,-1.232 -0.682,-2.244 -1.628,-2.464 -0.396,-0.088 -0.836,-0.132 -1.584,-0.132 h -2.442 v 5.28 h 2.992 c 1.254,0 2.662,-0.748 2.662,-2.684 z m -0.594,-6.666 c 0,-1.056 -0.594,-1.892 -1.474,-2.156 -0.352,-0.11 -0.77,-0.154 -1.54,-0.154 h -2.068 v 4.62 h 2.398 c 1.342,0 1.804,-0.242 2.244,-0.836 0.286,-0.396 0.44,-0.968 0.44,-1.474 z m 18.848,11.066 h -2.574 c -0.44,-0.858 -0.638,-1.21 -1.254,-2.244 -1.166,-1.936 -1.54,-2.574 -2.618,-3.784 -0.396,-0.44 -0.726,-0.66 -1.364,-0.682 v 6.71 h -2.112 v -15.158 h 4.246 c 1.804,0 2.86,0.418 3.586,1.1 0.682,0.638 1.342,1.65 1.342,3.124 0,2.31 -1.452,4.158 -3.872,4.158 h -0.176 c 0.66,0.55 0.858,0.792 1.32,1.408 0.308,0.418 0.77,1.078 1.276,1.87 z m -2.97,-10.912 c 0,-1.056 -0.572,-1.892 -1.408,-2.222 -0.44,-0.176 -1.056,-0.286 -1.848,-0.286 h -1.584 v 5.28 h 1.474 c 1.342,0 2.09,-0.22 2.618,-0.726 0.462,-0.44 0.748,-1.166 0.748,-2.046 z m 16.692,10.912 h -8.492 v -15.158 h 8.25 l -0.286,1.738 h -5.808 v 4.62 h 4.862 v 1.782 h -4.862 v 5.192 h 6.336 z m -50.928004,18.432 c 0,2.464 -0.638,4.268 -1.65,5.522 -1.056,1.32 -2.464,2.046 -5.104,2.046 h -3.784 v -15.158 h 3.52 c 2.618,0 4.29,0.594 5.676,2.508 0.902,1.254 1.342,2.992 1.342,5.082 z m -2.354,0.264 c 0,-2.112 -0.22,-3.674 -1.122,-4.818 -0.836,-1.056 -1.716,-1.342 -3.19,-1.342 h -1.716 v 11.726 h 1.672 c 1.738,0 2.86,-0.462 3.542,-1.694 0.55,-1.012 0.814,-2.376 0.814,-3.872 z m 16.846004,7.304 h -8.492 v -15.158 h 8.25 l -0.286,1.738 h -5.808 v 4.62 h 4.862 v 1.782 h -4.862 v 5.192 h 6.336 z m 22.956,-4.158 c 0,2.112 -1.298,3.454 -3.058,3.916 -0.682,0.176 -1.606,0.242 -2.398,0.242 h -4.62 v -15.158 h 3.212 c 2.552,0 3.234,0.066 4.18,0.572 1.342,0.704 2.046,1.782 2.046,3.168 0,1.584 -0.902,2.794 -2.75,3.344 2.288,0.506 3.388,1.936 3.388,3.916 z m -2.332,-0.242 c 0,-1.232 -0.682,-2.244 -1.628,-2.464 -0.396,-0.088 -0.836,-0.132 -1.584,-0.132 h -2.442 v 5.28 h 2.992 c 1.254,0 2.662,-0.748 2.662,-2.684 z m -0.594,-6.666 c 0,-1.056 -0.594,-1.892 -1.474,-2.156 -0.352,-0.11 -0.77,-0.154 -1.54,-0.154 h -2.068 v 4.62 h 2.398 c 1.342,0 1.804,-0.242 2.244,-0.836 0.286,-0.396 0.44,-0.968 0.44,-1.474 z m 18.848,11.066 h -2.574 c -0.44,-0.858 -0.638,-1.21 -1.254,-2.244 -1.166,-1.936 -1.54,-2.574 -2.618,-3.784 -0.396,-0.44 -0.726,-0.66 -1.364,-0.682 v 6.71 h -2.112 v -15.158 h 4.246 c 1.804,0 2.86,0.418 3.586,1.1 0.682,0.638 1.342,1.65 1.342,3.124 0,2.31 -1.452,4.158 -3.872,4.158 h -0.176 c 0.66,0.55 0.858,0.792 1.32,1.408 0.308,0.418 0.77,1.078 1.276,1.87 z m -2.97,-10.912 c 0,-1.056 -0.572,-1.892 -1.408,-2.222 -0.44,-0.176 -1.056,-0.286 -1.848,-0.286 h -1.584 v 5.28 h 1.474 c 1.342,0 2.09,-0.22 2.618,-0.726 0.462,-0.44 0.748,-1.166 0.748,-2.046 z m 18.298,6.16 c 0,1.914 -0.11,2.376 -0.792,3.212 -0.77,0.946 -2.024,1.782 -4.356,1.782 -2.288,0 -3.806,-0.726 -4.576,-2.112 -0.396,-0.704 -0.484,-1.122 -0.484,-2.706 v -10.582 h 2.134 v 9.79 c 0,1.1 0.11,2.442 0.55,2.948 0.418,0.484 1.188,0.858 2.398,0.858 1.144,0 1.98,-0.352 2.464,-0.99 0.374,-0.484 0.55,-1.298 0.55,-2.508 v -10.098 h 2.112 z m 16.626,4.752 h -2.574 l -3.41,-6.512 -3.278,6.512 h -2.574 l 4.576,-8.162 -4.048,-6.996 h 2.574 l 2.728,5.148 2.596,-5.148 h 2.53 l -3.828,6.864 z m 13.392,0 h -8.492 v -15.158 h 8.25 l -0.286,1.738 h -5.808 v 4.62 h 4.862 v 1.782 h -4.862 v 5.192 h 6.336 z m 13.37,-1.76 -0.352,1.76 h -7.568 v -15.158 h 2.156 v 13.398 z m 12.93,0 -0.352,1.76 h -7.568 v -15.158 h 2.156 v 13.398 z m 13.502,1.76 h -8.492 v -15.158 h 8.25 l -0.286,1.738 h -5.808 v 4.62 h 4.862 v 1.782 h -4.862 v 5.192 h 6.336 z m 15.284,-4.422 c 0,2.112 -1.738,4.708 -5.72,4.708 -1.738,0 -3.41,-0.44 -4.884,-1.342 l 0.836,-1.628 c 1.32,0.814 2.574,1.254 4.092,1.254 1.98,0 3.278,-1.012 3.278,-2.64 0,-1.232 -0.814,-2.09 -2.508,-2.574 l -1.584,-0.462 c -2.288,-0.66 -3.586,-1.76 -3.586,-3.916 0,-2.618 2.024,-4.4 5.016,-4.4 1.672,0 3.3,0.484 4.642,1.43 l -0.946,1.496 c -1.408,-0.858 -2.354,-1.188 -3.608,-1.188 -1.694,0 -2.75,0.88 -2.75,2.288 0,1.078 0.616,1.694 2.244,2.178 l 1.782,0.528 c 2.024,0.594 3.696,1.914 3.696,4.268 z"
       id="université-libre-de"
       fill="#004d95" />
  </g>
</svg>
