<svg fill="none" height="100" viewBox="0 0 243 100" width="243" xmlns="http://www.w3.org/2000/svg"><g fill="#fff"><path d="m85.3116 12.4538c-1.4037 1.1173-2.8073 1.6024-5.8691 1.6024h-2.9782v7.5311h-3.694v-21.18569h6.2985c3.4633 0 4.8669.485109 6.0718 1.43147 1.5746 1.20084 2.4613 3.20887 2.4613 5.32427 0 2.11539-.9145 4.23875-2.2903 5.29645zm-2.8352-8.01624c-.9463-.57259-2.0318-.66007-3.3798-.66007h-2.6323v6.89891h2.7476c1.2883 0 2.2904-.0875 3.2367-.6283.8867-.5169 1.4593-1.54676 1.4593-2.83509 0-1.25651-.5447-2.25853-1.4315-2.77545z"/><path d="m105.44 21.5873v-9.1335h-8.7363v9.1335h-3.8372v-21.18569h3.8372v8.67629h8.7323v-8.67629h3.837v21.18569z"/><path d="m126.307 21.9889c-6.414 0-11.11-5.0976-11.11-10.8234 0-6.29851 4.784-11.1655 11.142-11.1655 6.298 0 11.165 4.92664 11.165 10.9945 0 6.0718-4.839 10.9944-11.197 10.9944zm.06-18.58121c-4.354 0-7.328 3.55084-7.328 7.58681 0 4.0956 3.061 7.5868 7.328 7.5868 4.41 0 7.3-3.7497 7.3-7.559 0-3.80929-2.863-7.61461-7.3-7.61461z"/><path d="m149.441 3.77749v17.80981h-3.837v-17.80981h-4.64v-3.37986h13.086v3.37986z"/><path d="m168.623 21.9889c-6.414 0-11.11-5.0976-11.11-10.8234 0-6.29851 4.784-11.1655 11.138-11.1655 6.298 0 11.165 4.92664 11.165 10.9945 0 6.0718-4.839 10.9944-11.193 10.9944zm.056-18.58121c-4.35 0-7.329 3.55084-7.329 7.58681 0 4.0956 3.066 7.5868 7.329 7.5868 4.409 0 7.3-3.7497 7.3-7.559 0-3.80929-2.863-7.61461-7.3-7.61461z"/><path d="m241.445 76.9772-.016.3817c-.274 6.052-2.398 10.907-6.31 14.43-6.919 6.2309-17.11 5.706-19.743 5.6742-.027 0-.457 0-.481 0v-28.1959c.127 0 .652 0 .784-.004 4.938-.0318 10.688-.4772 11.646 11.8534l.028.3658h.95v-25.6869h-.938l-.04.3539c-1.264 11.6982-7.173 11.6505-11.988 11.6624-.016 0-.43 0-.442 0v-26.8877c.636-.004 1.678-.0119 2.318-.0239 9.082-.1391 18.081-1.0736 21.91 18.2473l.063.3221h.967v-20.0406h-52.205v1.3798h4.62v42.2959c-.111 6.0758-2.489 9.8056-4.576 11.7818-2.521 2.3897-6.052 3.6423-9.245 3.5309-11.778-.4254-12.108-12.2708-12.116-12.7838v-44.8288h5.364v-1.3798h-20.864v1.3798h5.535l-.016 39.8744c0 10.903 5.539 19.3129 21.715 19.3129 10.847 0 15.826-9.0103 15.714-16.4818v-42.7055h4.919v.008h5.833v56.6265h-5.264v1.4235h42.967v-21.8896h-1.089z"/><path d="m132.781 73.4264v1.3837h4.803v12.3942c-.008 9.2568-6.147 11.3165-10.963 11.4119-5.197.0835-8.68-2.4613-10.652-7.7458-1.945-5.1533-2.97-10.1276-2.97-21.7106 0-4.1234.636-17.6468 3.682-23.5636 1.157-2.2307 3.312-6.3779 9.738-6.3779h.059c7.833.0318 12.335 5.4554 15.985 19.9968l.075.3022h.887v-21.8418h-.855l-.103.2465c-.835 2.0001-2.827 2.4375-4.545 2.3977-.819-.0318-1.567-.1511-2.115-.2624-.486-.1074-.796-.2068-.812-.2108-.755-.2386-1.423-.4652-2.035-.668-.279-.0954-.549-.175-.82-.2505-1.976-.6561-3.451-1.0736-5.737-1.0736-10.299 0-24.471 10.4656-24.471 32.0569 0 17.6349 10.593 30.0887 25.051 30.0887 2.692 0 4.915-.8827 7.006-1.853.39-.159.776-.322 1.146-.497 2.043-.9702 3.98-1.8887 6.159-2.0041.087-.0039.175-.0039.262-.0079.06 0 .12-.004.183-.004 1.261 0 3.79.8152 4.279 3.2407l.063.3181.847.004v-24.3787h4.549v-1.3838h-18.696z"/><path d="m71.2752 37.9816c-12.2152 0-25.5994 12.2073-25.5994 30.8442s13.8256 31.0072 25.5994 31.0072c11.7778 0 25.5994-12.3703 25.5994-31.0072.004-18.6369-13.3842-30.8442-25.5994-30.8442zm14.2749 28.5539c.004.1351.008.2703.008.4016.0039.0994.0039.1948.0039.2942 0 .0756.004.1551.004.2306 0 .1233.004.2426.004.3579v.1352c0 .1272.004.2465.004.3658v.0955.4095.33c-.0159 3.4475-.3062 16.7761-3.7974 23.4205-1.9683 3.849-5.8611 5.8849-10.5014 5.8849s-8.5331-2.0359-10.5054-5.8889c-3.4912-6.6404-3.7815-19.973-3.7974-23.4165 0-.1153 0-.2266 0-.33 0-.1272 0-.2624 0-.4095 0-.0319 0-.0637 0-.0955 0-.1193 0-.2386.004-.3658 0-.0437 0-.0915 0-.1352 0-.1153.004-.2346.004-.3579 0-.0755.004-.155.004-.2306 0-.0954.004-.1948.004-.2942.0039-.1313.0039-.2665.0079-.4016 0-.0478.004-.0955.004-.1432.1352-5.3123.7992-15.2928 3.7695-21.1579 2.4017-4.859 7.217-5.8809 10.5014-5.8809 3.2805 0 8.0958 1.0219 10.5014 5.8849 2.9703 5.8611 3.6304 15.8416 3.7656 21.1539.0079.0477.0119.0954.0119.1432z"/><path d="m39.095 39.433v1.3639h4.863l-12.9707 43.4053-15.6626-43.4053h4.4455v-.7953h.0039v-.5686h-19.7741v1.3639h5.72587l21.94123 58.388h.3141l17.4759-58.388h5.3561v-1.3639z"/></g></svg>