<?xml version="1.0" encoding="UTF-8" standalone="no"?>
<!-- Created with Inkscape (http://www.inkscape.org/) -->

<svg
   version="1.1"
   id="svg1"
   width="542.27081"
   height="112.5789"
   viewBox="0 0 542.27081 112.5789"
   sodipodi:docname="perm.png"
   xmlns:inkscape="http://www.inkscape.org/namespaces/inkscape"
   xmlns:sodipodi="http://sodipodi.sourceforge.net/DTD/sodipodi-0.dtd"
   xmlns="http://www.w3.org/2000/svg"
   xmlns:svg="http://www.w3.org/2000/svg">
  <defs
     id="defs1" />
  <sodipodi:namedview
     id="namedview1"
     pagecolor="#ffffff"
     bordercolor="#000000"
     borderopacity="0.25"
     inkscape:showpageshadow="2"
     inkscape:pageopacity="0.0"
     inkscape:pagecheckerboard="0"
     inkscape:deskcolor="#d1d1d1"
     inkscape:export-bgcolor="#ffffff00">
    <inkscape:page
       x="0"
       y="0"
       width="542.27081"
       height="112.5789"
       id="page2"
       margin="0"
       bleed="0" />
  </sodipodi:namedview>
  <g
     inkscape:groupmode="layer"
     inkscape:label="Image"
     id="g1"
     transform="translate(-20.395378,-3.5000001)">
    <path
       style="fill:#000000"
       d="m 112.6535,99.643332 -5.6213,-16.415209 5.62962,-16.635012 c 3.09629,-9.149256 5.8655,-16.399119 6.15382,-16.110808 0.28831,0.288312 -1.91265,7.697325 -4.89103,16.464474 l -5.41523,15.94027 5.34073,16.127728 c 2.9374,8.870245 5.13461,16.333835 4.8827,16.585745 -0.25191,0.25191 -2.9876,-6.92882 -6.07931,-15.957188 z M 541,115.44979 c 0,-0.48596 2.31976,-7.8887 5.15503,-16.450538 l 5.15504,-15.566986 -5.15504,-15.467107 C 543.31976,59.45825 541.03547,51.82349 541.07881,50.999026 541.12216,50.174562 543.74963,57.15 546.91764,66.5 l 5.76002,17 -5.31405,15.891885 C 542.45498,114.07136 541,117.74284 541,115.44979 Z M 134.19268,106.9687 c -0.18601,-5.33976 -0.39956,-5.73602 -6.16653,-11.442822 -3.28562,-3.251333 -5.74948,-6.135879 -5.47526,-6.410103 0.27423,-0.274224 2.96246,1.934672 5.97385,4.908658 L 134,99.43168 139.5,94 c 5.34286,-5.276489 5.5,-5.58897 5.5,-10.936842 0,-5.336257 -0.17642,-5.690141 -5.75,-11.534161 L 133.5,65.5 l 6.01989,5.740984 6.01988,5.740983 5.96978,-5.740983 5.96978,-5.740984 -5.73966,6.028997 C 146.05995,77.495023 146,77.620718 146,83.563158 c 0,5.948167 -0.0518,6.05631 -5.45678,11.394156 -5.26625,5.200846 -5.46901,5.601166 -5.80732,11.465836 L 134.38536,112.5 Z m 10.49715,4.24416 c 0.6544,-0.41608 1.35866,-3.22169 1.56501,-6.23469 l 0.3752,-5.47817 0.18498,5.66667 c 0.11245,3.44485 0.67509,5.86443 1.43498,6.17105 0.6875,0.27741 -0.1,0.53302 -1.75,0.56802 -1.7181,0.0364 -2.49159,-0.25962 -1.81017,-0.69288 z M 211.19268,106.529 C 211.00525,100.72082 210.8432,100.39358 205.25,94.528997 L 199.5,88.5 l 6.03016,5.751153 6.03017,5.751157 5.71983,-5.780154 C 222.83115,88.612633 223,88.281359 223,83 c 0,-5.259369 -0.19297,-5.644341 -5.75,-11.471003 L 211.5,65.5 l 6.01989,5.740984 6.01988,5.740983 5.96978,-5.740983 5.96978,-5.740984 -5.73966,6.028997 C 224.17935,77.369603 224,77.729929 224,83.060301 c 0,5.394235 -0.117,5.618084 -5.95685,11.397 -5.81507,5.754389 -5.96519,6.039259 -6.30732,11.968699 l -0.35047,6.074 z m 11.49715,4.68386 c 0.6544,-0.41608 1.35866,-3.22169 1.56501,-6.23469 l 0.3752,-5.47817 0.18498,5.66667 c 0.11245,3.44485 0.67509,5.86443 1.43498,6.17105 0.6875,0.27741 -0.1,0.53302 -1.75,0.56802 -1.7181,0.0364 -2.49159,-0.25962 -1.81017,-0.69288 z m 58.49925,-4.74702 C 281.00421,100.56608 280.8775,100.3107 275.5,95 270.1428,89.709346 270,89.423821 270,84.002857 c 0,-5.47315 -0.0991,-5.663518 -5.97385,-11.476979 -3.28562,-3.251333 -5.74948,-6.135879 -5.47526,-6.410103 0.27423,-0.274224 2.96246,1.934672 5.97385,4.908658 L 270,76.43168 l 5.47526,-5.407247 c 3.01139,-2.973986 5.70026,-5.182247 5.97526,-4.907247 0.275,0.275 -1.96387,2.933261 -4.97526,5.907247 C 271.0502,77.382103 271,77.486716 271,83.434395 c 0,5.895034 0.0936,6.097503 5.21839,11.286743 l 5.21839,5.284032 6.03161,-5.752586 L 293.5,88.5 l -5.70227,6 c -5.46156,5.74673 -5.7174,6.25327 -6.06091,12 l -0.35865,6 z M 297,111.17431 c 0,-0.45412 1.125,-1.88256 2.5,-3.17431 2.53598,-2.38243 3.34592,-6.41381 1.475,-7.34167 -0.56375,-0.27958 -0.4834,-0.4028 0.17856,-0.27381 0.66195,0.12898 1.67308,0.97887 2.24694,1.88862 0.81604,1.2937 0.4503,2.27316 -1.67856,4.4952 -3.37372,3.52141 -3.44201,4.60246 -0.2522,3.99269 1.35835,-0.25966 2.2318,-0.0871 1.94098,0.38343 -0.67827,1.09746 -6.41072,1.12416 -6.41072,0.0299 z m 68.18908,-4.70561 C 365.00225,100.50908 364.92868,100.36682 359,94.5 c -5.88698,-5.825555 -6,-6.041035 -6,-11.439699 0,-5.330372 -0.17935,-5.690698 -5.73967,-11.531304 L 341.52067,65.5 l 5.96978,5.740984 5.96978,5.740983 6.01988,-5.740983 L 365.5,65.5 359.75,71.528997 C 354.19297,77.355659 354,77.740631 354,83 c 0,5.281359 0.16885,5.612633 5.71984,11.222156 l 5.71983,5.780154 6.03017,-5.751157 L 377.5,88.5 l -5.70227,6 c -5.46156,5.74673 -5.7174,6.25327 -6.06091,12 l -0.35865,6 z m 17.70733,1.9965 c 3.35627,-3.82258 3.76942,-5.39937 1.90359,-7.2652 -0.89306,-0.89306 -0.90206,-1.2 -0.0352,-1.2 0.64065,0 1.63528,0.87907 2.21029,1.95348 0.85803,1.60326 0.46141,2.6187 -2.21231,5.66389 l -3.25777,3.7104 2.74748,-0.52521 C 385.76363,110.51369 387,110.66494 387,111.13867 387,111.6124 385.37838,112 383.39641,112 h -3.60359 z m 46.29267,-1.99936 C 429.00421,100.56608 428.8775,100.3107 423.5,95 418.04692,89.614658 418,89.517091 418,83.563158 c 0,-5.944992 -0.0576,-6.06557 -5.75,-12.03382 l -5.75,-6.028656 5.75,5.465499 5.75,5.465499 5.47526,-5.407247 c 3.01139,-2.973986 5.70026,-5.182247 5.97526,-4.907247 0.275,0.275 -1.96387,2.933261 -4.97526,5.907247 C 419.0502,77.382103 419,77.486716 419,83.434395 c 0,5.895034 0.0936,6.097503 5.21839,11.286743 l 5.21839,5.284032 6.03161,-5.752586 L 441.5,88.5 l -5.70227,6 c -5.46156,5.74673 -5.7174,6.25327 -6.06091,12 l -0.35865,6 z m 17.50075,4.74702 c 0.6544,-0.41608 1.35866,-3.22169 1.56501,-6.23469 l 0.3752,-5.47817 0.18498,5.66667 c 0.11245,3.44485 0.67509,5.86443 1.43498,6.17105 0.6875,0.27741 -0.1,0.53302 -1.75,0.56802 -1.7181,0.0364 -2.49159,-0.25962 -1.81017,-0.69288 z m 55.50285,-4.24416 c -0.18601,-5.33976 -0.39956,-5.73602 -6.16653,-11.442822 -3.28562,-3.251333 -5.74948,-6.135879 -5.47526,-6.410103 0.27423,-0.274224 2.96246,1.934672 5.97385,4.908658 L 502,99.43168 507.5,94 c 5.34286,-5.276489 5.5,-5.58897 5.5,-10.936842 0,-5.336257 -0.17642,-5.690141 -5.75,-11.534161 L 501.5,65.5 l 6.01989,5.740984 6.01988,5.740983 5.96978,-5.740983 5.96978,-5.740984 -5.73966,6.028997 C 514.05995,77.495023 514,77.620718 514,83.563158 c 0,5.948167 -0.0518,6.05631 -5.45678,11.394156 -5.26625,5.200846 -5.46901,5.601166 -5.80732,11.465836 L 502.38536,112.5 Z m 9.13501,4.37028 c 0.9256,-0.92561 6.67247,-1.00224 6.67238,-0.089 -4e-5,0.4125 -1.65007,0.75 -3.66674,0.75 -2.01666,0 -3.3692,-0.29746 -3.00564,-0.66102 z M 514.8,106.8 c 1.57324,-1.57324 1.54128,-5.49562 -0.05,-6.13772 -0.78542,-0.31692 -0.83093,-0.53373 -0.12244,-0.58333 0.62015,-0.0434 1.69881,0.60938 2.39702,1.45066 1.47757,1.78037 -0.11936,6.47039 -2.20314,6.47039 -0.95001,0 -0.95477,-0.26667 -0.0214,-1.2 z M 297,102.55902 c 0,-0.79254 0.40803,-1.69316 0.90674,-2.00138 0.49871,-0.30822 0.67122,0.34022 0.38337,1.44098 C 297.6795,104.33361 297,104.62877 297,102.55902 Z m 83,0.38196 c 0,-0.58246 0.45,-0.7809 1,-0.44098 0.55,0.33992 1,0.81648 1,1.05902 0,0.24254 -0.45,0.44098 -1,0.44098 -0.55,0 -1,-0.47656 -1,-1.05902 z m 131.07895,-0.52431 c 0.048,-1.16495 0.28494,-1.4019 0.60416,-0.60417 0.28887,0.72187 0.25335,1.58437 -0.0789,1.91667 -0.33229,0.33229 -0.56864,-0.25834 -0.52522,-1.3125 z M 156.83882,83.001822 C 157.26092,75.524832 159,75.053963 159,82.416667 c 0,3.39766 0.46592,5.604671 1.25,5.921052 0.6875,0.277413 0.125,0.540733 -1.25,0.585156 -2.43394,0.07863 -2.49105,-0.07782 -2.16118,-5.921053 z m 78.05759,2.463382 C 238.25268,81.642615 238.66583,80.065827 236.8,78.2 235.90694,77.306941 235.89794,77 236.7648,77 c 0.64065,0 1.63528,0.879068 2.21029,1.953485 0.85803,1.603259 0.46141,2.618693 -2.21231,5.663887 l -3.25777,3.710403 2.74748,-0.525216 C 237.76363,87.513691 239,87.664941 239,88.138672 239,88.612402 237.37838,89 235.39641,89 h -3.60359 z m 45.79342,2.747655 c 0.6544,-0.416084 1.35866,-3.221693 1.56501,-6.234687 l 0.3752,-5.478172 0.18498,5.666667 c 0.11245,3.444857 0.67509,5.864428 1.43498,6.171052 0.6875,0.277413 -0.1,0.533022 -1.75,0.568021 -1.7181,0.03644 -2.49159,-0.259625 -1.81017,-0.692881 z m 82.63786,0.12612 c 0.9256,-0.925607 6.67247,-1.002244 6.67238,-0.08898 -4e-5,0.4125 -1.65007,0.75 -3.66674,0.75 -2.01666,0 -3.3692,-0.297459 -3.00564,-0.661021 z m 66.56872,-2.873775 c 3.38403,-3.854199 3.76322,-5.366001 1.85359,-7.390204 -1.0088,-1.069325 -0.96056,-1.237525 0.25,-0.871672 2.68563,0.811648 2.35382,4.813584 -0.66631,8.036234 L 428.5,88.263277 431.25,87.77031 C 432.7625,87.499179 434,87.664941 434,88.138672 434,88.612402 432.37838,89 430.39641,89 h -3.60359 z m 94.94241,-2.463382 C 525.26092,75.524832 527,75.053963 527,82.416667 c 0,3.39766 0.46592,5.604671 1.25,5.921052 0.6875,0.277413 0.125,0.540733 -1.25,0.585156 -2.43394,0.07863 -2.49105,-0.07782 -2.16118,-5.921053 z M 250,87 c 0,-0.55 0.45,-1 1,-1 0.55,0 1,0.45 1,1 0,0.55 -0.45,1 -1,1 -0.55,0 -1,-0.45 -1,-1 z m 148.5,0 c -0.33992,-0.55 -0.16803,-1 0.38197,-1 0.55,0 1.27811,0.45 1.61803,1 0.33992,0.55 0.16803,1 -0.38197,1 -0.55,0 -1.27811,-0.45 -1.61803,-1 z M 181.25,84.271532 c 2.0625,-0.215745 5.4375,-0.215745 7.5,0 2.0625,0.215744 0.375,0.392262 -3.75,0.392262 -4.125,0 -5.8125,-0.176518 -3.75,-0.392262 z m 142,0 c 2.0625,-0.215745 5.4375,-0.215745 7.5,0 2.0625,0.215744 0.375,0.392262 -3.75,0.392262 -4.125,0 -5.8125,-0.176518 -3.75,-0.392262 z M 366.8,83.8 c 1.57324,-1.573235 1.54128,-5.495623 -0.05,-6.137719 -0.78542,-0.316925 -0.83093,-0.533728 -0.12244,-0.583334 0.62015,-0.04342 1.69881,0.609379 2.39702,1.450667 C 370.50215,80.309982 368.90522,85 366.82144,85 365.87143,85 365.86667,84.733333 366.8,83.8 Z m 104.45,0.471532 c 2.0625,-0.215745 5.4375,-0.215745 7.5,0 2.0625,0.215744 0.375,0.392262 -3.75,0.392262 -4.125,0 -5.8125,-0.176518 -3.75,-0.392262 z m -290,-4 c 2.0625,-0.215745 5.4375,-0.215745 7.5,0 2.0625,0.215744 0.375,0.392262 -3.75,0.392262 -4.125,0 -5.8125,-0.176518 -3.75,-0.392262 z M 232,79.940983 c 0,-0.582459 0.45,-0.780902 1,-0.440983 0.55,0.339919 1,0.816476 1,1.059017 C 234,80.801558 233.55,81 233,81 c -0.55,0 -1,-0.476558 -1,-1.059017 z m 91.25,0.330549 c 2.0625,-0.215745 5.4375,-0.215745 7.5,0 2.0625,0.215744 0.375,0.392262 -3.75,0.392262 -4.125,0 -5.8125,-0.176518 -3.75,-0.392262 z m 39.82895,-0.854865 c 0.048,-1.164943 0.28494,-1.4019 0.60416,-0.604167 0.28887,0.721875 0.25335,1.584375 -0.0789,1.916667 -0.33229,0.332291 -0.56864,-0.258334 -0.52522,-1.3125 z M 427,79.940983 c 0,-0.582459 0.45,-0.780902 1,-0.440983 0.55,0.339919 1,0.816476 1,1.059017 C 429,80.801558 428.55,81 428,81 c -0.55,0 -1,-0.476558 -1,-1.059017 z m 44.25,0.330549 c 2.0625,-0.215745 5.4375,-0.215745 7.5,0 2.0625,0.215744 0.375,0.392262 -3.75,0.392262 -4.125,0 -5.8125,-0.176518 -3.75,-0.392262 z M 20.584527,51.234687 c 1.736281,-1.176202 4.392438,-13.05845 3.043093,-13.6132 C 23.007429,37.366511 23.85,37.129259 25.5,37.09426 c 1.675183,-0.03553 2.483005,0.265231 1.829284,0.68107 -0.643894,0.409587 -1.480177,1.977696 -1.858408,3.484687 C 24.863858,43.67857 25.065716,44 27.191592,44 c 4.334049,0 6.855011,-5.250005 3.058408,-6.369258 -1.482929,-0.437173 -1.461134,-0.486516 0.142817,-0.323324 1.041049,0.10592 2.383421,0.971638 2.983049,1.923818 1.431713,2.273491 -0.934819,4.726637 -5.450746,5.650243 -2.453113,0.501715 -3.478869,1.357533 -4.010741,3.346278 -0.452854,1.693284 -0.293325,2.844728 0.435488,3.143251 C 24.98244,51.630112 24.15,51.870741 22.5,51.90574 c -1.65,0.035 -2.511963,-0.266975 -1.915473,-0.671053 z m 15.455299,-0.686699 c -1.369701,-1.65039 -0.659971,-4.788424 1.485765,-6.569226 1.245847,-1.033962 1.296008,-0.765447 0.359087,1.922207 -0.598979,1.718231 -0.832191,3.793426 -0.51825,4.611544 0.723007,1.884125 0.218831,1.897607 -1.326602,0.03547 z M 46.558451,49 c 0.435645,-1.925 0.80964,-4.236374 0.831101,-5.136386 0.02146,-0.900012 0.556452,-1.437829 1.188869,-1.195147 0.840984,0.322716 0.76191,1.567245 -0.294379,4.633146 C 46.444631,52.640542 45.531076,53.539695 46.558451,49 Z m 8.769834,1.5 c 0.317207,-1.1 0.871112,-3.23439 1.230901,-4.743089 0.359788,-1.508699 1.004893,-2.526325 1.433565,-2.261391 0.428673,0.264934 0.239072,2.053422 -0.421335,3.974418 -1.294258,3.764746 -3.195652,6.333183 -2.243131,3.030062 z m 6.041429,-0.75 c 0.331637,-1.2375 0.609121,-3.3525 0.616631,-4.7 0.0089,-1.600183 0.353619,-2.110036 0.993763,-1.469892 C 63.96861,44.56861 62.517843,52 61.336365,52 c -0.313295,0 -0.298288,-1.0125 0.03335,-2.25 z m 5.996268,-2.436192 c 0.07936,-3.071118 0.501949,-4.823893 1.036189,-4.297829 0.535972,0.527769 0.481573,2.632893 -0.134017,5.186192 L 67.231965,52.5 Z M 561,51 c 0,-0.55 0.47656,-1 1.05902,-1 0.58246,0 0.7809,0.45 0.44098,1 -0.33992,0.55 -0.81648,1 -1.05902,1 C 561.19844,52 561,51.55 561,51 Z M 83.25,49.271532 c 2.0625,-0.215745 5.4375,-0.215745 7.5,0 2.0625,0.215744 0.375,0.392262 -3.75,0.392262 -4.125,0 -5.8125,-0.176518 -3.75,-0.392262 z m 133.5,-2.021489 c 62.2875,-0.142224 164.2125,-0.142224 226.5,0 62.2875,0.142223 11.325,0.258588 -113.25,0.258588 -124.575,0 -175.5375,-0.116365 -113.25,-0.258588 z M 41.428571,44 c 0,-1.295238 0.338096,-1.633333 0.985715,-0.985714 0.647619,0.647619 0.647619,1.323809 0,1.971428 C 41.766667,45.633333 41.428571,45.295238 41.428571,44 Z M 83.25,45.271532 c 2.0625,-0.215745 5.4375,-0.215745 7.5,0 2.0625,0.215744 0.375,0.392262 -3.75,0.392262 -4.125,0 -5.8125,-0.176518 -3.75,-0.392262 z M 52,43.833333 C 52,43.375 52.423442,43 52.940983,43 c 0.517541,0 1.172746,0.375 1.456011,0.833333 0.283266,0.458334 -0.140176,0.833334 -0.940983,0.833334 C 52.655205,44.666667 52,44.291667 52,43.833333 Z m 241.94843,-2.905756 c -6.45228,-9.061386 -6.43322,-24.820523 0.041,-33.912729 3.11263,-4.3712841 3.66791,-3.0723168 0.61179,1.4311388 -4.7386,6.9827062 -4.89762,22.7512392 -0.31219,30.9554712 2.96427,5.303654 2.8175,5.961267 -0.3406,1.526119 z M 386.3007,38.028605 C 391.00549,28.53635 390.29199,14.72316 384.67213,6.5 l -2.05025,-3 2.1681,1.8860221 c 1.19246,1.0373122 3.12157,4.4123122 4.28692,7.4999999 3.64855,9.667139 1.41402,25.141952 -4.31727,29.898503 -0.7626,0.632901 -0.0691,-1.507263 1.54107,-4.75592 z M 86.515827,40.83379 C 84.257148,39.057112 83.423697,38.878814 81.880968,39.842264 80.665362,40.601422 80,40.649115 80,39.977089 c 0,-1.599326 3.072649,-2.411805 4.882466,-1.291037 6.485606,4.016351 6.149976,3.934489 7.678438,1.872818 C 93.352407,39.491249 94,39.063749 94,39.60887 94,40.96312 91.8586,43 90.434859,43 89.794031,43 88.030467,42.025205 86.515827,40.83379 Z M 311.18908,30.026905 c -0.18162,-5.257039 -0.4358,-5.73074 -6.43908,-11.999737 l -6.25,-6.526642 6.25,5.968433 6.25,5.968434 6.25,-5.968696 6.25,-5.968697 -5.70227,6 c -5.46156,5.746729 -5.7174,6.253271 -6.06091,12 l -0.35865,6 z M 321.75,34.337719 c 0.76077,-0.306977 1.32055,-2.722234 1.43025,-6.171052 L 323.3605,22.5 l 0.38371,4.974609 c 0.21105,2.736035 0.86003,5.548535 1.4422,6.25 0.81791,0.985526 0.40564,1.257448 -1.81397,1.196444 -1.57984,-0.04342 -2.30994,-0.305921 -1.62244,-0.583334 z m 35.43498,-4.808722 c -0.18006,-5.812104 -0.338,-6.131444 -5.93498,-12 L 345.5,11.5 l 6.24856,5.967267 6.24855,5.967266 5.75145,-5.466925 5.75144,-5.466926 -5.6999,5.999659 C 358.48924,24.090508 358.07528,24.875389 357.73508,30 l -0.36512,5.5 z M 367,34.174314 c 0,-0.454127 1.125,-1.882569 2.5,-3.174314 2.53598,-2.382431 3.34592,-6.413813 1.475,-7.341667 -0.56375,-0.279583 -0.4834,-0.402799 0.17856,-0.273814 0.66195,0.128986 1.67308,0.978867 2.24694,1.888625 0.81604,1.293692 0.4503,2.273153 -1.67856,4.4952 -3.37372,3.521406 -3.44201,4.60246 -0.2522,3.99269 1.35835,-0.259666 2.2318,-0.08713 1.94098,0.383423 C 372.73245,35.241923 367,35.268622 367,34.174314 Z M 270.01187,29.309017 C 270.0184,28.864058 270.68806,26.025 271.5,23 c 1.94465,-7.245021 1.89482,-7.792993 -0.75,-8.247876 -1.2375,-0.212838 0.97102,-0.581636 4.90782,-0.819551 3.9368,-0.237915 6.94775,-0.09507 6.69099,0.317427 -0.25677,0.4125 -1.96681,0.75 -3.80011,0.75 -3.29726,0 -3.35181,0.07571 -5.05088,7.008906 -0.94469,3.854898 -2.11817,7.256456 -2.60772,7.559017 -0.48956,0.302561 -0.88476,0.186053 -0.87823,-0.258906 z M 338,28 c 0,-0.55 0.45,-1 1,-1 0.55,0 1,0.45 1,1 0,0.55 -0.45,1 -1,1 -0.55,0 -1,-0.45 -1,-1 z m 29,-2.440983 c 0,-0.792541 0.40803,-1.693162 0.90674,-2.00138 0.49871,-0.308218 0.67122,0.340224 0.38337,1.440983 C 367.6795,27.333607 367,27.628767 367,25.559017 Z M 265,17.622445 c 0,-0.207656 0.6853,-0.946305 1.52289,-1.641444 1.27335,-1.056784 1.41968,-0.994917 0.89301,0.377555 C 266.87801,17.760293 265,18.742779 265,17.622445 Z"
       id="path1"
       inkscape:export-filename="perm.svg"
       inkscape:export-xdpi="96"
       inkscape:export-ydpi="96" />
  </g>
</svg>
