<?xml version="1.0" encoding="UTF-8" standalone="no"?>
<svg
   fill="none"
   height="100"
   viewBox="0 0 243 100"
   width="243"
   version="1.1"
   id="svg120"
   sodipodi:docname="logo-photovogue.svg"
   inkscape:export-filename="photovogue.svg"
   inkscape:export-xdpi="96"
   inkscape:export-ydpi="96"
   xmlns:inkscape="http://www.inkscape.org/namespaces/inkscape"
   xmlns:sodipodi="http://sodipodi.sourceforge.net/DTD/sodipodi-0.dtd"
   xmlns="http://www.w3.org/2000/svg"
   xmlns:svg="http://www.w3.org/2000/svg">
  <defs
     id="defs124" />
  <sodipodi:namedview
     id="namedview122"
     pagecolor="#ffffff"
     bordercolor="#666666"
     borderopacity="1.0"
     inkscape:showpageshadow="2"
     inkscape:pageopacity="0.0"
     inkscape:pagecheckerboard="0"
     inkscape:deskcolor="#d1d1d1"
     showgrid="false" />
  <g
     fill="#fff"
     id="g118"
     style="fill:#000000;fill-opacity:1">
    <path
       d="m 85.3116,12.4538 c -1.4037,1.1173 -2.8073,1.6024 -5.8691,1.6024 h -2.9782 v 7.5311 h -3.694 V 0.40161 h 6.2985 c 3.4633,0 4.8669,0.485109 6.0718,1.43147 1.5746,1.20084 2.4613,3.20887 2.4613,5.32427 0,2.11539 -0.9145,4.23875 -2.2903,5.29645 z M 82.4764,4.43756 C 81.5301,3.86497 80.4446,3.77749 79.0966,3.77749 h -2.6323 v 6.89891 h 2.7476 c 1.2883,0 2.2904,-0.0875 3.2367,-0.6283 0.8867,-0.5169 1.4593,-1.54676 1.4593,-2.83509 0,-1.25651 -0.5447,-2.25853 -1.4315,-2.77545 z"
       id="path100"
       style="fill:#000000;fill-opacity:1" />
    <path
       d="m 105.44,21.5873 v -9.1335 h -8.7363 v 9.1335 H 92.8665 V 0.40161 h 3.8372 V 9.0779 h 8.7323 V 0.40161 h 3.837 V 21.5873 Z"
       id="path102"
       style="fill:#000000;fill-opacity:1" />
    <path
       d="m 126.307,21.9889 c -6.414,0 -11.11,-5.0976 -11.11,-10.8234 C 115.197,4.86699 119.981,0 126.339,0 c 6.298,0 11.165,4.92664 11.165,10.9945 0,6.0718 -4.839,10.9944 -11.197,10.9944 z m 0.06,-18.58121 c -4.354,0 -7.328,3.55084 -7.328,7.58681 0,4.0956 3.061,7.5868 7.328,7.5868 4.41,0 7.3,-3.7497 7.3,-7.559 0,-3.80929 -2.863,-7.61461 -7.3,-7.61461 z"
       id="path104"
       style="fill:#000000;fill-opacity:1" />
    <path
       d="M 149.441,3.77749 V 21.5873 h -3.837 V 3.77749 h -4.64 V 0.39763 h 13.086 v 3.37986 z"
       id="path106"
       style="fill:#000000;fill-opacity:1" />
    <path
       d="m 168.623,21.9889 c -6.414,0 -11.11,-5.0976 -11.11,-10.8234 C 157.513,4.86699 162.297,0 168.651,0 c 6.298,0 11.165,4.92664 11.165,10.9945 0,6.0718 -4.839,10.9944 -11.193,10.9944 z m 0.056,-18.58121 c -4.35,0 -7.329,3.55084 -7.329,7.58681 0,4.0956 3.066,7.5868 7.329,7.5868 4.409,0 7.3,-3.7497 7.3,-7.559 0,-3.80929 -2.863,-7.61461 -7.3,-7.61461 z"
       id="path108"
       style="fill:#000000;fill-opacity:1" />
    <path
       d="m 241.445,76.9772 -0.016,0.3817 c -0.274,6.052 -2.398,10.907 -6.31,14.43 -6.919,6.2309 -17.11,5.706 -19.743,5.6742 -0.027,0 -0.457,0 -0.481,0 V 69.2672 c 0.127,0 0.652,0 0.784,-0.004 4.938,-0.0318 10.688,-0.4772 11.646,11.8534 l 0.028,0.3658 h 0.95 V 55.7955 h -0.938 l -0.04,0.3539 c -1.264,11.6982 -7.173,11.6505 -11.988,11.6624 -0.016,0 -0.43,0 -0.442,0 V 40.9241 c 0.636,-0.004 1.678,-0.0119 2.318,-0.0239 9.082,-0.1391 18.081,-1.0736 21.91,18.2473 l 0.063,0.3221 h 0.967 V 39.429 h -52.205 v 1.3798 h 4.62 v 42.2959 c -0.111,6.0758 -2.489,9.8056 -4.576,11.7818 -2.521,2.3897 -6.052,3.6423 -9.245,3.5309 C 166.969,97.992 166.639,86.1466 166.631,85.6336 V 40.8048 h 5.364 V 39.425 h -20.864 v 1.3798 h 5.535 l -0.016,39.8744 c 0,10.903 5.539,19.3129 21.715,19.3129 10.847,0 15.826,-9.0103 15.714,-16.4818 V 40.8048 h 4.919 v 0.008 h 5.833 v 56.6265 h -5.264 v 1.4235 h 42.967 V 76.9732 h -1.089 z"
       id="path110"
       style="fill:#000000;fill-opacity:1" />
    <path
       d="m 132.781,73.4264 v 1.3837 h 4.803 v 12.3942 c -0.008,9.2568 -6.147,11.3165 -10.963,11.4119 -5.197,0.0835 -8.68,-2.4613 -10.652,-7.7458 -1.945,-5.1533 -2.97,-10.1276 -2.97,-21.7106 0,-4.1234 0.636,-17.6468 3.682,-23.5636 1.157,-2.2307 3.312,-6.3779 9.738,-6.3779 h 0.059 c 7.833,0.0318 12.335,5.4554 15.985,19.9968 l 0.075,0.3022 h 0.887 V 37.6755 h -0.855 l -0.103,0.2465 c -0.835,2.0001 -2.827,2.4375 -4.545,2.3977 -0.819,-0.0318 -1.567,-0.1511 -2.115,-0.2624 -0.486,-0.1074 -0.796,-0.2068 -0.812,-0.2108 -0.755,-0.2386 -1.423,-0.4652 -2.035,-0.668 -0.279,-0.0954 -0.549,-0.175 -0.82,-0.2505 -1.976,-0.6561 -3.451,-1.0736 -5.737,-1.0736 -10.299,0 -24.471,10.4656 -24.471,32.0569 0,17.6349 10.593,30.0887 25.051,30.0887 2.692,0 4.915,-0.8827 7.006,-1.853 0.39,-0.159 0.776,-0.322 1.146,-0.497 2.043,-0.9702 3.98,-1.8887 6.159,-2.0041 0.087,-0.0039 0.175,-0.0039 0.262,-0.0079 0.06,0 0.12,-0.004 0.183,-0.004 1.261,0 3.79,0.8152 4.279,3.2407 l 0.063,0.3181 0.847,0.004 V 74.8181 h 4.549 v -1.3838 h -18.696 z"
       id="path112"
       style="fill:#000000;fill-opacity:1" />
    <path
       d="m 71.2752,37.9816 c -12.2152,0 -25.5994,12.2073 -25.5994,30.8442 0,18.6369 13.8256,31.0072 25.5994,31.0072 11.7778,0 25.5994,-12.3703 25.5994,-31.0072 C 96.8786,50.1889 83.4904,37.9816 71.2752,37.9816 Z m 14.2749,28.5539 c 0.004,0.1351 0.008,0.2703 0.008,0.4016 0.0039,0.0994 0.0039,0.1948 0.0039,0.2942 0,0.0756 0.004,0.1551 0.004,0.2306 0,0.1233 0.004,0.2426 0.004,0.3579 v 0.1352 c 0,0.1272 0.004,0.2465 0.004,0.3658 v 0.0955 0.4095 0.33 c -0.0159,3.4475 -0.3062,16.7761 -3.7974,23.4205 -1.9683,3.849 -5.8611,5.8849 -10.5014,5.8849 -4.6403,0 -8.5331,-2.0359 -10.5054,-5.8889 -3.4912,-6.6404 -3.7815,-19.973 -3.7974,-23.4165 0,-0.1153 0,-0.2266 0,-0.33 0,-0.1272 0,-0.2624 0,-0.4095 0,-0.0319 0,-0.0637 0,-0.0955 0,-0.1193 0,-0.2386 0.004,-0.3658 0,-0.0437 0,-0.0915 0,-0.1352 0,-0.1153 0.004,-0.2346 0.004,-0.3579 0,-0.0755 0.004,-0.155 0.004,-0.2306 0,-0.0954 0.004,-0.1948 0.004,-0.2942 0.0039,-0.1313 0.0039,-0.2665 0.0079,-0.4016 0,-0.0478 0.004,-0.0955 0.004,-0.1432 0.1352,-5.3123 0.7992,-15.2928 3.7695,-21.1579 2.4017,-4.859 7.217,-5.8809 10.5014,-5.8809 3.2805,0 8.0958,1.0219 10.5014,5.8849 2.9703,5.8611 3.6304,15.8416 3.7656,21.1539 0.0079,0.0477 0.0119,0.0954 0.0119,0.1432 z"
       id="path114"
       style="fill:#000000;fill-opacity:1" />
    <path
       d="m 39.095,39.433 v 1.3639 h 4.863 L 30.9873,84.2022 15.3247,40.7969 h 4.4455 v -0.7953 h 0.0039 V 39.433 H 0 v 1.3639 h 5.72587 l 21.94123,58.388 h 0.3141 l 17.4759,-58.388 h 5.3561 V 39.433 Z"
       id="path116"
       style="fill:#000000;fill-opacity:1" />
  </g>
</svg>
